HIERARCHY
ROOT Hips
{
	OFFSET 0.058547 100.481255 -0.522458
	CHANNELS 6 Xposition Yposition Zposition Xrotation Yrotation Zrotation 
	JOINT Spine
	{
		OFFSET -0.279214 12.230705 -2.892139
		CHANNELS 3 Xrotation Yrotation Zrotation
		JOINT Spine1
		{
			OFFSET -0.232678 10.192256 -1.242257
			CHANNELS 3 Xrotation Yrotation Zrotation
			JOINT Spine1_split
			{
				OFFSET -0.232678 10.192256 -1.242257
				CHANNELS 3 Xrotation Yrotation Zrotation
				JOINT Spine2
				{
					OFFSET -0.232678 10.192256 -1.242257
					CHANNELS 3 Xrotation Yrotation Zrotation
					JOINT Neck
					{
						OFFSET -0.418821 17.814224 8.416937
						CHANNELS 3 Xrotation Yrotation Zrotation
						JOINT Head
						{
							OFFSET 0.000000 7.031097 3.806764
							CHANNELS 3 Xrotation Yrotation Zrotation
							JOINT HeadTop_End
							{
								OFFSET 0.000000 24.646591 12.978601
								CHANNELS 3 Xrotation Yrotation Zrotation
								End Site
								{
									OFFSET 0.000000 0.000000 0.000000
								}
							}
						}
					}
					JOINT LeftShoulder
					{
						OFFSET 8.476512 7.247673 -3.868757
						CHANNELS 3 Xrotation Yrotation Zrotation
						JOINT LeftShoulder_split
						{
							OFFSET 8.476512 7.247673 -3.868757
							CHANNELS 3 Xrotation Yrotation Zrotation
							JOINT LeftArm
							{
								OFFSET 9.308996 -2.777740 0.208551
								CHANNELS 3 Xrotation Yrotation Zrotation
								JOINT LeftForeArm
								{
									OFFSET 29.972336 0.000015 0.000022
									CHANNELS 3 Xrotation Yrotation Zrotation
									JOINT LeftHand
									{
										OFFSET 26.026470 0.000015 0.000033
										CHANNELS 3 Xrotation Yrotation Zrotation
										JOINT LeftHandThumb1
										{
											OFFSET 12.240555 -7.117950 9.230400
											CHANNELS 3 Xrotation Yrotation Zrotation
											JOINT LeftHandThumb2
											{
												OFFSET 4.138626 -2.389450 2.389374
												CHANNELS 3 Xrotation Yrotation Zrotation
												JOINT LeftHandThumb3
												{
													OFFSET 2.726952 -1.574417 1.574393
													CHANNELS 3 Xrotation Yrotation Zrotation
													JOINT LeftHandThumb4
													{
														OFFSET 3.940979 -2.275375 2.275301
														CHANNELS 3 Xrotation Yrotation Zrotation
														End Site
														{
															OFFSET 0.000000 0.000000 0.000000
														}
													}
												}
											}
										}
										JOINT LeftHandIndex1
										{
											OFFSET 24.424660 -1.966187 5.959913
											CHANNELS 3 Xrotation Yrotation Zrotation
											JOINT LeftHandIndex2
											{
												OFFSET 6.426682 0.000015 0.000035
												CHANNELS 3 Xrotation Yrotation Zrotation
												JOINT LeftHandIndex3
												{
													OFFSET 5.337883 -0.000031 0.000035
													CHANNELS 3 Xrotation Yrotation Zrotation
													JOINT LeftHandIndex4
													{
														OFFSET 4.409393 -0.000015 0.000044
														CHANNELS 3 Xrotation Yrotation Zrotation
														End Site
														{
															OFFSET 0.000000 0.000000 0.000000
														}
													}
												}
											}
										}
										JOINT LeftHandMiddle1
										{
											OFFSET 23.810127 0.000000 0.000041
											CHANNELS 3 Xrotation Yrotation Zrotation
											JOINT LeftHandMiddle2
											{
												OFFSET 7.176491 -0.000015 0.000051
												CHANNELS 3 Xrotation Yrotation Zrotation
												JOINT LeftHandMiddle3
												{
													OFFSET 6.774864 -0.000015 0.000032
													CHANNELS 3 Xrotation Yrotation Zrotation
													JOINT LeftHandMiddle4
													{
														OFFSET 5.402740 -0.027710 -0.077597
														CHANNELS 3 Xrotation Yrotation Zrotation
														End Site
														{
															OFFSET 0.000000 0.000000 0.000000
														}
													}
												}
											}
										}
										JOINT LeftHandRing1
										{
											OFFSET 22.908371 -0.858917 -6.017762
											CHANNELS 3 Xrotation Yrotation Zrotation
											JOINT LeftHandRing2
											{
												OFFSET 6.337524 0.000000 -0.000050
												CHANNELS 3 Xrotation Yrotation Zrotation
												JOINT LeftHandRing3
												{
													OFFSET 5.779289 0.000000 -0.000029
													CHANNELS 3 Xrotation Yrotation Zrotation
													JOINT LeftHandRing4
													{
														OFFSET 4.965714 0.000031 -0.000057
														CHANNELS 3 Xrotation Yrotation Zrotation
														End Site
														{
															OFFSET 0.000000 0.000000 0.000000
														}
													}
												}
											}
										}
										JOINT LeftHandPinky1
										{
											OFFSET 20.036995 -1.565994 -10.945109
											CHANNELS 3 Xrotation Yrotation Zrotation
											JOINT LeftHandPinky2
											{
												OFFSET 5.254700 -0.000015 0.000002
												CHANNELS 3 Xrotation Yrotation Zrotation
												JOINT LeftHandPinky3
												{
													OFFSET 4.810226 -0.000015 -0.000019
													CHANNELS 3 Xrotation Yrotation Zrotation
													JOINT LeftHandPinky4
													{
														OFFSET 3.647247 0.000015 -0.000044
														CHANNELS 3 Xrotation Yrotation Zrotation
														End Site
														{
															OFFSET 0.000000 0.000000 0.000000
														}
													}
												}
											}
										}
									}
								}
							}
						}
					}
					JOINT RightShoulder
					{
						OFFSET -7.570480 7.247673 -3.868757
						CHANNELS 3 Xrotation Yrotation Zrotation
						JOINT RightShoulder_split
						{
							OFFSET -7.570480 7.247673 -3.868757
							CHANNELS 3 Xrotation Yrotation Zrotation
							JOINT RightArm
							{
								OFFSET -9.309000 -2.777725 0.208549
								CHANNELS 3 Xrotation Yrotation Zrotation
								JOINT RightForeArm
								{
									OFFSET -29.972336 0.000061 -0.000048
									CHANNELS 3 Xrotation Yrotation Zrotation
									JOINT RightHand
									{
										OFFSET -26.026474 0.000092 0.000017
										CHANNELS 3 Xrotation Yrotation Zrotation
										JOINT RightHandThumb1
										{
											OFFSET -12.240570 -7.117905 9.230402
											CHANNELS 3 Xrotation Yrotation Zrotation
											JOINT RightHandThumb2
											{
												OFFSET -4.138580 -2.389465 2.389442
												CHANNELS 3 Xrotation Yrotation Zrotation
												JOINT RightHandThumb3
												{
													OFFSET -2.726990 -1.574402 1.574351
													CHANNELS 3 Xrotation Yrotation Zrotation
													JOINT RightHandThumb4
													{
														OFFSET -3.940971 -2.275345 2.275330
														CHANNELS 3 Xrotation Yrotation Zrotation
														End Site
														{
															OFFSET 0.000000 0.000000 0.000000
														}
													}
												}
											}
										}
										JOINT RightHandIndex1
										{
											OFFSET -24.424667 -1.966171 5.959853
											CHANNELS 3 Xrotation Yrotation Zrotation
											JOINT RightHandIndex2
											{
												OFFSET -6.426682 -0.000046 0.000010
												CHANNELS 3 Xrotation Yrotation Zrotation
												JOINT RightHandIndex3
												{
													OFFSET -5.337891 0.000015 0.000031
													CHANNELS 3 Xrotation Yrotation Zrotation
													JOINT RightHandIndex4
													{
														OFFSET -4.409386 0.000015 0.000044
														CHANNELS 3 Xrotation Yrotation Zrotation
														End Site
														{
															OFFSET 0.000000 0.000000 0.000000
														}
													}
												}
											}
										}
										JOINT RightHandMiddle1
										{
											OFFSET -23.810127 -0.000015 -0.000027
											CHANNELS 3 Xrotation Yrotation Zrotation
											JOINT RightHandMiddle2
											{
												OFFSET -7.176491 -0.000046 -0.000001
												CHANNELS 3 Xrotation Yrotation Zrotation
												JOINT RightHandMiddle3
												{
													OFFSET -6.774857 -0.000046 0.000038
													CHANNELS 3 Xrotation Yrotation Zrotation
													JOINT RightHandMiddle4
													{
														OFFSET -5.402740 -0.027740 -0.077594
														CHANNELS 3 Xrotation Yrotation Zrotation
														End Site
														{
															OFFSET 0.000000 0.000000 0.000000
														}
													}
												}
											}
										}
										JOINT RightHandRing1
										{
											OFFSET -22.908348 -0.858963 -6.017824
											CHANNELS 3 Xrotation Yrotation Zrotation
											JOINT RightHandRing2
											{
												OFFSET -6.337524 0.000046 -0.000019
												CHANNELS 3 Xrotation Yrotation Zrotation
												JOINT RightHandRing3
												{
													OFFSET -5.779289 0.000046 -0.000004
													CHANNELS 3 Xrotation Yrotation Zrotation
													JOINT RightHandRing4
													{
														OFFSET -4.965721 -0.000031 -0.000032
														CHANNELS 3 Xrotation Yrotation Zrotation
														End Site
														{
															OFFSET 0.000000 0.000000 0.000000
														}
													}
												}
											}
										}
										JOINT RightHandPinky1
										{
											OFFSET -20.036957 -1.566071 -10.945158
											CHANNELS 3 Xrotation Yrotation Zrotation
											JOINT RightHandPinky2
											{
												OFFSET -5.254700 0.000031 -0.000025
												CHANNELS 3 Xrotation Yrotation Zrotation
												JOINT RightHandPinky3
												{
													OFFSET -4.810226 -0.000015 -0.000048
													CHANNELS 3 Xrotation Yrotation Zrotation
													JOINT RightHandPinky4
													{
														OFFSET -3.647247 -0.000031 -0.000029
														CHANNELS 3 Xrotation Yrotation Zrotation
														End Site
														{
															OFFSET 0.000000 0.000000 0.000000
														}
													}
												}
											}
										}
									}
								}
							}
						}
					}
				}
			}
		}
	}
	JOINT LeftUpLeg
	{
		OFFSET 15.427091 -6.655090 0.678631
		CHANNELS 3 Xrotation Yrotation Zrotation
		JOINT LeftLeg
		{
			OFFSET 4.088469 -39.590321 13.023970
			CHANNELS 3 Xrotation Yrotation Zrotation
			JOINT LeftFoot
			{
				OFFSET -4.073973 -37.708702 -15.979749
				CHANNELS 3 Xrotation Yrotation Zrotation
				JOINT LeftToeBase
				{
					OFFSET 5.346369 -15.068922 20.645004
					CHANNELS 3 Xrotation Yrotation Zrotation
					JOINT LeftToe_End
					{
						OFFSET 2.754658 0.931270 11.300900
						CHANNELS 3 Xrotation Yrotation Zrotation
						End Site
						{
							OFFSET 0.000000 0.000000 0.000000
						}
					}
				}
			}
		}
	}
	JOINT RightUpLeg
	{
		OFFSET -15.569522 -6.655090 0.678631
		CHANNELS 3 Xrotation Yrotation Zrotation
		JOINT RightLeg
		{
			OFFSET -4.074467 -39.591820 13.023795
			CHANNELS 3 Xrotation Yrotation Zrotation
			JOINT RightFoot
			{
				OFFSET 4.088761 -37.707176 -15.979579
				CHANNELS 3 Xrotation Yrotation Zrotation
				JOINT RightToeBase
				{
					OFFSET -5.346370 -15.068919 20.645004
					CHANNELS 3 Xrotation Yrotation Zrotation
					JOINT RightToe_End
					{
						OFFSET -2.754656 0.931271 11.300900
						CHANNELS 3 Xrotation Yrotation Zrotation
						End Site
						{
							OFFSET 0.000000 0.000000 0.000000
						}
					}
				}
			}
		}
	}
}
MOTION
Frames: 5
Frame Time: 0.016667
2.941506 107.706856 -2.556479 -12.465393 -0.434687 -1.712991 -3.013024 -3.107916 2.679048 1.341451 -0.394057 2.093240 0.000000 0.000000 0.000000 1.345713 -0.282894 2.116648 9.657573 -4.849570 7.404085 10.314034 -25.265821 25.481336 0.000001 0.000004 -0.000003 0.516759 0.363759 -1.548792 0.000000 0.000000 0.000000 -67.007359 11.655918 -6.336794 -0.000067 -103.323072 -0.000062 33.950592 -16.752861 57.781420 -33.902136 -0.982077 -1.651554 0.786342 13.246343 10.422883 -1.989932 4.274325 7.196818 0.000001 -0.000003 0.000004 0.205344 -1.648870 14.196670 0.000844 0.107012 -0.911718 0.000214 0.053481 -0.455867 0.000000 -0.000001 0.000001 -0.919242 3.354907 12.955446 0.008261 0.332467 -2.840531 -0.025967 -0.546690 -2.054965 -0.000001 0.000001 0.000001 -1.962865 9.688484 11.485284 0.028633 0.619874 -5.289042 0.023366 0.560210 -4.788210 0.000001 0.000003 -0.000003 -3.348392 19.396081 10.981354 0.041975 -3.219811 -7.640154 0.045799 0.783458 -6.690543 -0.000001 0.000001 -0.000001 0.412526 -1.336043 6.758905 0.000000 0.000000 0.000000 -57.393506 -8.077848 -3.367529 -0.001325 98.484443 0.001550 13.440328 32.302762 -69.488910 -14.287499 7.186011 -4.942949 7.526092 -13.852500 0.551897 0.125480 -2.493832 -2.001468 0.000003 0.000000 -0.000002 0.095951 -1.137556 9.641947 0.002292 -0.176701 1.490594 0.000581 -0.088352 0.745294 0.000001 0.000001 0.000003 0.755610 -5.458870 8.434297 0.000949 -0.113835 0.960317 0.214720 0.817740 -0.248914 -0.000001 0.000003 -0.000003 1.380644 -10.889500 6.973155 0.000104 -0.037941 0.319010 0.213908 0.099129 -0.863697 0.000001 -0.000001 0.000000 1.754438 -15.770075 5.683888 0.000000 -0.000007 0.000059 0.002887 0.197987 -1.670214 0.000001 -0.000000 -0.000000 8.145807 -26.566540 26.248887 85.642738 -0.453164 -3.446954 14.843505 5.049268 8.851357 0.000012 -0.000003 0.000001 -0.000000 0.000001 0.000001 -4.353718 22.683364 -22.651740 62.420716 13.249774 -4.934951 24.206132 0.358827 15.536797 -0.000003 -0.000002 -0.000003 -0.000002 -0.000001 -0.000000 
3.325990 108.334518 -1.279601 -11.429032 -0.618291 -2.540682 -4.320303 -3.605331 3.361056 2.021575 -0.426599 2.098099 0.000000 0.000000 0.000000 2.027289 -0.327236 2.120047 9.516429 -4.818836 7.555534 10.160711 -24.632280 24.655166 0.000002 0.000002 0.000001 0.564559 0.109994 -2.570542 0.000000 0.000000 0.000000 -64.876579 11.191708 -7.048331 0.000261 -99.955987 0.000270 34.213572 -16.926858 56.717850 -33.313387 -0.668011 -1.239169 0.862685 13.287210 10.293378 -1.952438 4.291456 7.137162 -0.000002 -0.000002 0.000004 0.189176 -1.583631 13.623651 0.001163 0.125047 -1.065452 0.000288 0.062544 -0.532726 0.000003 0.000002 0.000000 -0.831575 3.247765 12.197067 0.010242 0.370163 -3.162128 -0.028232 -0.518009 -2.298244 -0.000001 0.000001 -0.000001 -1.716546 9.365392 10.476096 0.034675 0.682004 -5.820877 0.027976 0.612897 -5.238910 -0.000002 -0.000000 0.000004 -2.833317 18.892385 9.691543 0.053210 -3.139737 -8.328261 0.054557 0.854738 -7.302537 0.000000 -0.000000 0.000001 0.561009 -1.704312 9.089380 0.000000 0.000000 0.000000 -54.789971 -10.822426 -2.213618 -0.001493 95.942977 0.001739 13.243660 35.974162 -67.585057 -13.925481 6.786511 -5.200725 7.526090 -13.852504 0.551897 0.125478 -2.493832 -2.001464 -0.000001 0.000000 -0.000001 0.100022 -1.161300 9.845375 0.002989 -0.201648 1.701030 0.000744 -0.100820 0.850496 0.000000 0.000000 -0.000002 0.764530 -5.339722 8.796664 0.001362 -0.136071 1.147819 0.183137 0.792692 -0.031685 -0.000001 0.000001 -0.000000 1.434012 -10.587621 7.536878 0.000228 -0.054145 0.455881 0.181821 0.055679 -0.482865 -0.000000 -0.000000 0.000002 1.885237 -15.302458 6.435933 -0.000006 -0.000012 0.000067 0.001235 0.129395 -1.091470 0.000001 0.000000 0.000003 3.425093 -18.024405 20.717968 78.315161 1.112026 0.002074 11.531856 3.345777 8.644398 0.000003 -0.000006 0.000002 -0.000000 -0.000001 -0.000001 -6.028696 16.379557 -19.316412 54.386573 12.630810 -5.930950 19.259076 2.461112 16.387075 0.000008 -0.000001 -0.000002 0.000001 -0.000000 -0.000001 
3.561193 108.926605 -0.000310 -10.198962 -0.792994 -3.193090 -6.220321 -4.106454 3.790320 2.861511 -0.453707 2.096758 0.000000 0.000000 0.000000 2.868643 -0.368867 2.115151 9.329692 -4.722055 7.652862 9.856694 -23.667304 23.679668 -0.000001 0.000003 -0.000003 0.612455 -0.061212 -3.967388 0.000000 0.000000 0.000000 -62.221767 10.938586 -8.444059 0.000518 -96.489611 0.000561 33.588739 -16.936246 55.115160 -32.696368 -0.331168 -0.813226 0.943354 13.330245 10.156624 -1.912845 4.309561 7.074199 -0.000002 0.000001 -0.000001 0.172777 -1.514368 13.016687 0.001540 0.144245 -1.228976 0.000387 0.072116 -0.614482 -0.000000 -0.000002 -0.000003 -0.739906 3.120446 11.381829 0.012654 0.411522 -3.515140 -0.030597 -0.486244 -2.567748 -0.000001 0.000001 -0.000003 -1.461819 8.990462 9.381595 0.042045 0.750767 -6.410103 0.033624 0.671576 -5.741358 -0.000001 -0.000000 0.000000 -2.299009 18.305640 8.290382 0.066828 -3.050977 -9.092522 0.065216 0.934237 -7.985925 -0.000000 0.000001 0.000001 0.739614 -2.066469 11.589548 0.000000 0.000000 0.000000 -51.415171 -14.061511 -0.653335 -0.000938 93.325984 0.001174 11.925756 39.332044 -64.472287 -13.546931 6.363989 -5.466971 7.526090 -13.852502 0.551896 0.125479 -2.493833 -2.001468 0.000000 -0.000000 0.000000 0.104414 -1.186275 10.059349 0.003831 -0.227872 1.922364 0.000963 -0.113940 0.961186 0.000000 0.000001 -0.000000 0.769989 -5.190915 9.204244 0.002282 -0.176353 1.487753 0.121444 0.760365 0.243643 -0.000000 -0.000000 0.000003 1.484423 -10.216199 8.188636 0.000932 -0.112515 0.948313 0.118893 -0.000536 0.004417 0.000000 -0.000000 0.000003 2.018279 -14.728234 7.314195 0.000329 -0.066173 0.558089 0.000174 0.047794 -0.403084 -0.000000 0.000000 0.000001 -0.240384 -8.697460 15.657604 69.374040 -1.151685 4.246135 9.614498 3.169734 7.612579 0.000000 0.000000 0.000005 -0.000001 0.000000 -0.000000 -6.261804 11.551843 -17.145855 44.979179 10.448435 -5.251458 15.736414 7.677389 17.502469 0.000004 -0.000004 0.000001 0.000000 -0.000000 0.000000 
3.527082 109.311966 1.208962 -8.876250 -0.993050 -3.409536 -8.529838 -4.482422 3.753043 3.797964 -0.479772 2.056643 0.000000 0.000000 0.000000 3.806295 -0.410126 2.069780 9.100109 -4.559094 7.670184 9.248861 -22.438379 22.518232 -0.000000 0.000001 -0.000002 0.663781 -0.192291 -5.684512 0.000000 0.000000 0.000000 -59.117364 10.922257 -10.644269 0.003494 -93.000839 0.003486 32.034513 -16.531940 52.752720 -32.052876 0.028411 -0.375898 1.028147 13.375319 10.012905 -1.871293 4.328602 7.008064 -0.000002 0.000000 -0.000001 0.156295 -1.441221 12.377373 0.002014 0.164535 -1.401818 0.000511 0.082253 -0.700903 0.000000 -0.000000 0.000000 -0.646669 2.975704 10.514708 0.015554 0.456163 -3.896225 -0.032975 -0.451739 -2.860366 -0.000000 -0.000000 0.000000 -1.206062 8.569688 8.211689 0.050835 0.825301 -7.049612 0.040344 0.735489 -6.288761 0.000000 0.000000 0.000000 -1.760779 17.644030 6.794318 0.082984 -2.954780 -9.922971 0.077922 1.020732 -8.731010 0.000000 0.000000 -0.000001 0.853340 -2.433701 12.010823 0.000000 0.000000 0.000000 -46.466054 -19.077982 3.079650 0.158110 90.437859 -0.157773 9.296226 42.077940 -60.184827 -13.153075 5.919176 -5.740340 7.526092 -13.852502 0.551898 0.125480 -2.493834 -2.001465 0.000000 0.000000 -0.000001 0.109088 -1.212412 10.283387 0.004801 -0.255329 2.154108 0.001188 -0.127659 1.077054 -0.000001 0.000000 -0.000001 0.771302 -5.016616 9.651836 0.003854 -0.228294 1.926228 0.044878 0.722003 0.563534 -0.000000 0.000000 -0.000001 1.527610 -9.784802 8.917077 0.002822 -0.195734 1.650539 0.041449 -0.068981 0.585451 0.000000 0.000001 -0.000001 2.143329 -14.061771 8.300916 0.002193 -0.172814 1.457847 0.000143 -0.045153 0.380806 -0.000000 -0.000000 0.000001 -1.821679 -1.935380 13.135907 59.063753 -2.059898 6.231941 9.417424 -1.294802 4.978796 0.000001 -0.000000 -0.000000 0.000001 0.000000 -0.000001 -5.619452 8.066218 -15.080047 35.408971 9.215549 -3.509440 14.466395 11.842512 19.058183 0.000004 0.000002 -0.000001 -0.000000 0.000001 -0.000000 
3.453188 109.408455 2.194377 -7.606936 -1.095597 -3.344922 -10.829364 -4.793227 3.456172 4.723392 -0.511215 1.944103 0.000000 0.000000 0.000000 4.732545 -0.454900 1.951243 8.835957 -4.340992 7.585340 8.205529 -21.066108 21.154757 0.000003 -0.000001 0.000000 0.717021 -0.325390 -7.599195 0.000000 0.000000 0.000000 -55.698915 11.182118 -13.677397 -0.084360 -89.526397 -0.083999 29.679081 -15.475102 49.480646 -31.384829 0.410655 0.070415 1.116862 13.422307 9.862635 -1.827887 4.348528 6.938923 -0.000001 -0.000000 -0.000001 0.139887 -1.364350 11.707433 0.002568 0.185847 -1.583514 0.000642 0.092933 -0.791751 -0.000000 -0.000000 -0.000002 -0.554045 2.816292 9.600792 0.018945 0.503657 -4.301968 -0.035349 -0.414856 -3.172929 -0.000000 -0.000001 0.000001 -0.956242 8.109550 6.976227 0.061149 0.904743 -7.732224 0.048206 0.803728 -6.874256 0.000000 -0.000000 0.000001 -1.232767 16.916644 5.219380 0.101740 -2.852282 -10.809642 0.092759 1.113078 -9.528090 0.000000 0.000000 -0.000000 0.943194 -2.786680 12.014225 0.000000 0.000000 0.000000 -39.835664 -23.775962 8.347883 0.006133 87.049204 -0.005834 5.368811 43.829519 -54.970185 -12.745083 5.452925 -6.019442 7.526091 -13.852503 0.551899 0.125481 -2.493832 -2.001469 -0.000001 -0.000002 -0.000001 0.114092 -1.239622 10.516919 0.005940 -0.283932 2.395679 0.001484 -0.141993 1.197832 -0.000000 -0.000000 0.000000 0.767871 -4.821040 10.134282 0.005955 -0.284360 2.399239 -0.031181 0.679389 0.912558 0.000000 0.000001 0.000000 1.559625 -9.303231 9.710908 0.006054 -0.286597 2.417199 -0.034179 -0.145994 1.224972 -0.000001 -0.000000 0.000000 2.250853 -13.317934 9.378738 0.006166 -0.289640 2.443857 0.001615 -0.147714 1.246021 0.000000 -0.000002 0.000000 -2.052195 2.695003 11.326370 47.755361 -2.861140 6.125578 11.321888 -5.685986 1.061986 -0.000001 0.000001 -0.000000 -0.000001 0.000000 -0.000001 -4.061666 6.491480 -12.726521 25.865978 8.955304 -1.357807 15.619463 13.325370 20.918233 0.000006 0.000005 -0.000002 0.000000 0.000000 0.000000 
